<?xml version="1.0" encoding="utf-8"?>
<!-- Generator: Adobe Illustrator 16.0.4, SVG Export Plug-In . SVG Version: 6.00 Build 0)  -->
<!DOCTYPE svg PUBLIC "-//W3C//DTD SVG 1.1//EN" "http://www.w3.org/Graphics/SVG/1.1/DTD/svg11.dtd">
<svg version="1.1" id="Layer_1" xmlns="http://www.w3.org/2000/svg" xmlns:xlink="http://www.w3.org/1999/xlink" x="0px" y="0px"
	 width="512px" height="512px" viewBox="0 0 512 512" enable-background="new 0 0 512 512" xml:space="preserve">
<path id="microphone-3-icon" fill="#FFFFFF" d="M170.313,235.674V84.346C170.313,37.763,208.077,0,254.66,0
	c46.584,0,84.346,37.763,84.346,84.346v151.328c0,46.583-37.762,84.346-84.346,84.346
	C208.077,320.02,170.313,282.257,170.313,235.674z M376.218,192.26v43.414c0,67.027-54.531,121.559-121.558,121.559
	c-67.027,0-121.558-54.531-121.558-121.559V192.26H83.486v43.414c0,84.882,62.107,155.519,143.265,168.887v56.656h-71.323v49.615
	h198.462v-49.615h-71.322v-56.656c81.157-13.368,143.265-84.005,143.265-168.887V192.26H376.218z"/>
</svg>
