<?xml version="1.0" encoding="utf-8"?>
<!-- Generator: Adobe Illustrator 16.0.4, SVG Export Plug-In . SVG Version: 6.00 Build 0)  -->
<!DOCTYPE svg PUBLIC "-//W3C//DTD SVG 1.1//EN" "http://www.w3.org/Graphics/SVG/1.1/DTD/svg11.dtd">
<svg version="1.1" id="Layer_1" xmlns="http://www.w3.org/2000/svg" xmlns:xlink="http://www.w3.org/1999/xlink" x="0px" y="0px"
	 width="410.801px" height="271.046px" viewBox="50.6 120.477 410.801 271.046"
	 enable-background="new 50.6 120.477 410.801 271.046" xml:space="preserve">
<path fill="#fff" id="cloud-3-icon" d="M409.338,216.254c-10.416-54.961-58.666-95.777-115.781-95.777c-35.098,0-67.631,15.285-89.871,41.584
	c-37.148-9.906-76.079,11.781-86.933,48.779C78.16,222.176,50.6,257.895,50.6,299.303c0,50.852,41.37,92.221,93.222,92.221H369.18
	c50.851,0,92.222-41.368,92.222-92.221C461.4,263.389,440.941,231.457,409.338,216.254z M369.18,351.523H143.821
	c-29.795,0-53.222-23.426-53.222-52.222c0-34.077,27.65-60.078,62.186-53.816c-11.536-39.596,44.131-61.93,64.641-32.348
	c5.157-14.582,25.823-52.662,76.131-52.662c38.027,0,77.361,26.08,78.664,84.982c25.363,0.098,49.181,18.433,49.181,53.844
	C421.4,328.098,397.975,351.523,369.18,351.523z"/>
</svg>
